#define ac_width 15
#define ac_height 22
static unsigned char ac_bits[] = {
   0x38, 0x0e, 0x28, 0x0a, 0x28, 0x0a, 0xfe, 0x3f, 0x02, 0x20, 0xfa, 0x2b,
   0xfa, 0x29, 0xfa, 0x2c, 0x7a, 0x2e, 0x3a, 0x2e, 0x1a, 0x2f, 0x0a, 0x2f,
   0x02, 0x20, 0x02, 0x28, 0x3a, 0x2c, 0x3a, 0x2e, 0x1a, 0x2f, 0x9a, 0x2f,
   0xca, 0x2f, 0xea, 0x2f, 0x02, 0x20, 0xfe, 0x3f };
