#define bat_width 15
#define bat_height 22
static unsigned char bat_bits[] = {
   0x38, 0x0e, 0x28, 0x0a, 0x28, 0x0a, 0xfe, 0x3f, 0x02, 0x20, 0x02, 0x20,
   0x02, 0x20, 0x02, 0x20, 0x02, 0x20, 0x02, 0x20, 0x02, 0x20, 0x02, 0x20,
   0x02, 0x20, 0x02, 0x20, 0xfa, 0x2f, 0xfa, 0x2f, 0xfa, 0x2f, 0xfa, 0x2f,
   0xfa, 0x2f, 0xfa, 0x2f, 0x02, 0x20, 0xfe, 0x3f };
