#define clock_width 20
#define clock_height 20
static unsigned char clock_bits[] = {
   0xc0, 0x3f, 0x00, 0xf0, 0xff, 0x00, 0xf8, 0xf9, 0x01, 0xfc, 0xf9, 0x03,
   0xfe, 0xf9, 0x07, 0xfe, 0xf9, 0x07, 0xff, 0xf9, 0x0f, 0xff, 0xf9, 0x0f,
   0xff, 0xf9, 0x0f, 0xff, 0x01, 0x0f, 0xff, 0x01, 0x0f, 0xff, 0xff, 0x0f,
   0xff, 0xff, 0x0f, 0xff, 0xff, 0x0f, 0xfe, 0xff, 0x07, 0xfe, 0xff, 0x07,
   0xfc, 0xff, 0x03, 0xf8, 0xff, 0x01, 0xf0, 0xff, 0x00, 0xc0, 0x3f, 0x00 };
