#define dev_width 20
#define dev_height 16
static unsigned char dev_bits[] = {
   0xff, 0xff, 0x0f, 0x03, 0xff, 0x0b, 0xff, 0xff, 0x0f, 0x03, 0x00, 0x0c,
   0x03, 0x00, 0x0c, 0x33, 0x00, 0x0c, 0x63, 0x00, 0x0c, 0xc3, 0x00, 0x0c,
   0x83, 0x01, 0x0c, 0xc3, 0x00, 0x0c, 0x63, 0xfe, 0x0c, 0x33, 0xfe, 0x0c,
   0x03, 0x00, 0x0c, 0x03, 0x00, 0x0c, 0xff, 0xff, 0x0f, 0xff, 0xff, 0x0f };
