#define dia_width 16
#define dia_height 20
static unsigned char dia_bits[] = {
   0x00, 0x00, 0x04, 0x00, 0xfe, 0x03, 0xfe, 0x0f, 0x04, 0x3c, 0x04, 0x30,
   0x84, 0x61, 0xc4, 0x63, 0x44, 0x62, 0x64, 0x66, 0x24, 0x64, 0x34, 0x6c,
   0x34, 0x6c, 0xf4, 0x6f, 0x04, 0x30, 0x04, 0x3c, 0xfe, 0x0f, 0xfe, 0x03,
   0x04, 0x00, 0x00, 0x00 };
