#define full_width 15
#define full_height 22
static unsigned char full_bits[] = {
   0x38, 0x0e, 0x28, 0x0a, 0x28, 0x0a, 0x28, 0x0a, 0x28, 0x0a, 0xfe, 0x3f,
   0xfe, 0x3f, 0x76, 0x3e, 0x6e, 0x3d, 0x5e, 0x3b, 0x3e, 0x37, 0xfe, 0x3f,
   0xfc, 0x1f, 0xf0, 0x07, 0xe0, 0x03, 0xe0, 0x03, 0xe0, 0x03, 0xe0, 0x03,
   0xe0, 0x03, 0xe0, 0x03, 0xe0, 0x03, 0xe0, 0x03 };
