#define gimp_width 18
#define gimp_height 20
static unsigned char gimp_bits[] = {
   0x00, 0x00, 0x00, 0x00, 0x00, 0x00, 0x00, 0x60, 0x00, 0x00, 0xf0, 0x00,
   0x00, 0x98, 0x01, 0x00, 0x9c, 0x01, 0x00, 0xf6, 0x00, 0x00, 0x63, 0x00,
   0x80, 0x31, 0x00, 0xc0, 0x18, 0x00, 0x60, 0x0c, 0x00, 0x30, 0x06, 0x00,
   0x18, 0x03, 0x00, 0x8c, 0x01, 0x00, 0xc6, 0x00, 0x00, 0x6e, 0x00, 0x00,
   0x3e, 0x00, 0x00, 0x1e, 0x00, 0x00, 0x00, 0x00, 0x00, 0x00, 0x00, 0x00 };
