#define mail_width 20
#define mail_height 16
static unsigned char mail_bits[] = {
   0xff, 0xff, 0x0f, 0xff, 0xff, 0x0f, 0x0f, 0x00, 0x0f, 0x1f, 0x80, 0x0f,
   0x3b, 0xc0, 0x0d, 0x73, 0xe0, 0x0c, 0xe3, 0x70, 0x0c, 0xc3, 0x39, 0x0c,
   0x83, 0x1f, 0x0c, 0x03, 0x0f, 0x0c, 0x03, 0x06, 0x0c, 0x03, 0x00, 0x0c,
   0x03, 0x00, 0x0c, 0x03, 0x00, 0x0c, 0xff, 0xff, 0x0f, 0xff, 0xff, 0x0f };
