#define media_width 16
#define media_height 20
static unsigned char media_bits[] = {
   0x00, 0x00, 0x00, 0x00, 0x80, 0x01, 0x80, 0x03, 0x80, 0x07, 0x80, 0x0f,
   0x80, 0x1f, 0x80, 0x1c, 0x80, 0x38, 0x80, 0x30, 0x80, 0x20, 0x80, 0x20,
   0xb0, 0x30, 0xf8, 0x18, 0xfc, 0x08, 0xfc, 0x00, 0x78, 0x00, 0x30, 0x00,
   0x00, 0x00, 0x00, 0x00 };
