#define mute_width 22
#define mute_height 20
static unsigned char mute_bits[] = {
   0x00, 0x00, 0x00, 0x00, 0x02, 0x00, 0x00, 0x03, 0x00, 0x80, 0x03, 0x00,
   0xc0, 0x03, 0x00, 0xe0, 0x03, 0x00, 0xff, 0x63, 0x30, 0xff, 0xe3, 0x38,
   0xff, 0xc3, 0x1d, 0xff, 0x83, 0x0f, 0xff, 0x03, 0x07, 0xff, 0x83, 0x0f,
   0xff, 0xc3, 0x1d, 0xff, 0xe3, 0x38, 0xe0, 0x63, 0x30, 0xc0, 0x03, 0x00,
   0x80, 0x03, 0x00, 0x00, 0x03, 0x00, 0x00, 0x02, 0x00, 0x00, 0x00, 0x00 };
