#define office_width 18
#define office_height 20
static unsigned char office_bits[] = {
   0xfe, 0x1f, 0x00, 0xfe, 0x3f, 0x00, 0x06, 0x78, 0x00, 0x06, 0xf8, 0x00,
   0xf6, 0xfb, 0x01, 0x06, 0xf8, 0x01, 0x06, 0x80, 0x01, 0xf6, 0xbf, 0x01,
   0x06, 0x80, 0x01, 0x06, 0x80, 0x01, 0xf6, 0xbf, 0x01, 0x06, 0x80, 0x01,
   0x06, 0x80, 0x01, 0xf6, 0xbf, 0x01, 0x06, 0x80, 0x01, 0x06, 0x80, 0x01,
   0xf6, 0xbf, 0x01, 0x06, 0x80, 0x01, 0xfe, 0xff, 0x01, 0xfe, 0xff, 0x01 };
