#define random_width 18
#define random_height 18
static unsigned char random_bits[] = {
   0xf3, 0x33, 0x03, 0xf3, 0x33, 0x03, 0x03, 0x03, 0x03, 0x03, 0x03, 0x03,
   0x3f, 0xf3, 0x03, 0x3f, 0xf3, 0x03, 0x00, 0x03, 0x03, 0x00, 0x03, 0x03,
   0xff, 0x3f, 0x03, 0xff, 0x3f, 0x03, 0x00, 0x30, 0x00, 0x00, 0x30, 0x00,
   0x3f, 0xf3, 0x03, 0x3f, 0xf3, 0x03, 0x03, 0x33, 0x00, 0x03, 0x33, 0x00,
   0xf3, 0x33, 0x03, 0xf3, 0x33, 0x03 };
