#define sound_width 22
#define sound_height 20
static unsigned char sound_bits[] = {
   0x00, 0x00, 0x00, 0x00, 0x02, 0x00, 0x00, 0x03, 0x20, 0x80, 0x03, 0x20,
   0xc0, 0x03, 0x24, 0xe0, 0x03, 0x24, 0xff, 0x83, 0x24, 0xff, 0x83, 0x24,
   0xff, 0x93, 0x24, 0xff, 0x93, 0x24, 0xff, 0x93, 0x24, 0xff, 0x93, 0x24,
   0xff, 0x83, 0x24, 0xff, 0x83, 0x24, 0xe0, 0x03, 0x24, 0xc0, 0x03, 0x24,
   0x80, 0x03, 0x20, 0x00, 0x03, 0x20, 0x00, 0x02, 0x00, 0x00, 0x00, 0x00 };
