#define www_width 20
#define www_height 20
static unsigned char www_bits[] = {
   0xc0, 0x3f, 0x00, 0xf0, 0xf0, 0x00, 0x38, 0xc0, 0x01, 0x8c, 0x10, 0x03,
   0x06, 0x61, 0x06, 0xf6, 0xf1, 0x06, 0xf3, 0xf9, 0x0c, 0xfb, 0xe0, 0x0d,
   0xf9, 0xf0, 0x09, 0xf1, 0xe0, 0x08, 0x71, 0x00, 0x08, 0xf1, 0x38, 0x09,
   0xe3, 0x7c, 0x0d, 0x73, 0x7e, 0x0d, 0x36, 0xbe, 0x04, 0x06, 0x1c, 0x06,
   0x0c, 0x00, 0x03, 0x38, 0x80, 0x01, 0xf0, 0xf0, 0x00, 0xc0, 0x3f, 0x00 };
