#define ac_width 24
#define ac_height 24
static unsigned char ac_bits[] = {
   0x00, 0x00, 0x00, 0x80, 0xe3, 0x00, 0x80, 0xa2, 0x00, 0x80, 0xa2, 0x00,
   0xe0, 0xff, 0x03, 0x20, 0x00, 0x02, 0xa0, 0xbf, 0x02, 0xa0, 0x9f, 0x02,
   0xa0, 0xcf, 0x02, 0xa0, 0xe7, 0x02, 0xa0, 0xe3, 0x02, 0xa0, 0xf1, 0x02,
   0xa0, 0xf0, 0x02, 0x20, 0x00, 0x02, 0x20, 0x80, 0x02, 0xa0, 0xc3, 0x02,
   0xa0, 0xe3, 0x02, 0xa0, 0xf1, 0x02, 0xa0, 0xf9, 0x02, 0xa0, 0xfc, 0x02,
   0xa0, 0xfe, 0x02, 0x20, 0x00, 0x02, 0xe0, 0xff, 0x03, 0x00, 0x00, 0x00 };
