#define bat_width 24
#define bat_height 24
static unsigned char bat_bits[] = {
   0x00, 0x00, 0x00, 0x80, 0xe3, 0x00, 0x80, 0xa2, 0x00, 0x80, 0xa2, 0x00,
   0xe0, 0xff, 0x03, 0x20, 0x00, 0x02, 0x20, 0x00, 0x02, 0x20, 0x00, 0x02,
   0x20, 0x00, 0x02, 0x20, 0x00, 0x02, 0x20, 0x00, 0x02, 0x20, 0x00, 0x02,
   0x20, 0x00, 0x02, 0x20, 0x00, 0x02, 0x20, 0x00, 0x02, 0xa0, 0xff, 0x02,
   0xa0, 0xff, 0x02, 0xa0, 0xff, 0x02, 0xa0, 0xff, 0x02, 0xa0, 0xff, 0x02,
   0xa0, 0xff, 0x02, 0x20, 0x00, 0x02, 0xe0, 0xff, 0x03, 0x00, 0x00, 0x00 };
