#define clock_width 24
#define clock_height 24
static unsigned char clock_bits[] = {
   0x00, 0x00, 0x00, 0x00, 0x00, 0x00, 0x00, 0xff, 0x00, 0xc0, 0xff, 0x03,
   0xe0, 0xe7, 0x07, 0xf0, 0xe7, 0x0f, 0xf8, 0xe7, 0x1f, 0xf8, 0xe7, 0x1f,
   0xfc, 0xe7, 0x3f, 0xfc, 0xe7, 0x3f, 0xfc, 0xe7, 0x3f, 0xfc, 0x07, 0x3c,
   0xfc, 0x07, 0x3c, 0xfc, 0xff, 0x3f, 0xfc, 0xff, 0x3f, 0xfc, 0xff, 0x3f,
   0xf8, 0xff, 0x1f, 0xf8, 0xff, 0x1f, 0xf0, 0xff, 0x0f, 0xe0, 0xff, 0x07,
   0xc0, 0xff, 0x03, 0x00, 0xff, 0x00, 0x00, 0x00, 0x00, 0x00, 0x00, 0x00 };
