#define term_width 24
#define term_height 24
static unsigned char term_bits[] = {
   0x00, 0x00, 0x00, 0x00, 0x00, 0x00, 0x00, 0x00, 0x00, 0x00, 0x00, 0x00,
   0xfc, 0xff, 0x3f, 0x0c, 0xfc, 0x2f, 0xfc, 0xff, 0x3f, 0x0c, 0x00, 0x30,
   0x0c, 0x00, 0x30, 0xcc, 0x00, 0x30, 0x8c, 0x01, 0x30, 0x0c, 0x03, 0x30,
   0x0c, 0x06, 0x30, 0x0c, 0x03, 0x30, 0x8c, 0xf9, 0x33, 0xcc, 0xf8, 0x33,
   0x0c, 0x00, 0x30, 0x0c, 0x00, 0x30, 0xfc, 0xff, 0x3f, 0xfc, 0xff, 0x3f,
   0x00, 0x00, 0x00, 0x00, 0x00, 0x00, 0x00, 0x00, 0x00, 0x00, 0x00, 0x00 };
