#define dia_width 24
#define dia_height 24
static unsigned char dia_bits[] = {
   0x00, 0x00, 0x00, 0x00, 0x00, 0x00, 0x00, 0x00, 0x00, 0x40, 0x00, 0x00,
   0xe0, 0x3f, 0x00, 0xe0, 0xff, 0x00, 0x40, 0xc0, 0x03, 0x40, 0x00, 0x03,
   0x40, 0x18, 0x06, 0x40, 0x3c, 0x06, 0x40, 0x24, 0x06, 0x40, 0x66, 0x06,
   0x40, 0x42, 0x06, 0x40, 0xc3, 0x06, 0x40, 0xc3, 0x06, 0x40, 0xff, 0x06,
   0x40, 0x00, 0x03, 0x40, 0xc0, 0x03, 0xe0, 0xff, 0x00, 0xe0, 0x3f, 0x00,
   0x40, 0x00, 0x00, 0x00, 0x00, 0x00, 0x00, 0x00, 0x00, 0x00, 0x00, 0x00 };
