#define full_width 24
#define full_height 24
static unsigned char full_bits[] = {
   0x00, 0x00, 0x00, 0x80, 0xe3, 0x00, 0x80, 0xa2, 0x00, 0x80, 0xa2, 0x00,
   0x80, 0xa2, 0x00, 0x80, 0xa2, 0x00, 0xe0, 0xff, 0x03, 0xe0, 0xff, 0x03,
   0x60, 0xe7, 0x03, 0xe0, 0xd6, 0x03, 0xe0, 0xb5, 0x03, 0xe0, 0x73, 0x03,
   0xe0, 0xff, 0x03, 0xc0, 0xff, 0x01, 0x00, 0x7f, 0x00, 0x00, 0x3e, 0x00,
   0x00, 0x3e, 0x00, 0x00, 0x3e, 0x00, 0x00, 0x3e, 0x00, 0x00, 0x3e, 0x00,
   0x00, 0x3e, 0x00, 0x00, 0x3e, 0x00, 0x00, 0x3e, 0x00, 0x00, 0x00, 0x00 };
