#define gimp_width 24
#define gimp_height 24
static unsigned char gimp_bits[] = {
   0x00, 0x00, 0x00, 0x00, 0x00, 0x00, 0x00, 0x00, 0x00, 0x00, 0x00, 0x00,
   0x00, 0x00, 0x03, 0x00, 0x80, 0x07, 0x00, 0xc0, 0x0c, 0x00, 0xe0, 0x0c,
   0x00, 0xb0, 0x07, 0x00, 0x18, 0x03, 0x00, 0x8c, 0x01, 0x00, 0xc6, 0x00,
   0x00, 0x63, 0x00, 0x80, 0x31, 0x00, 0xc0, 0x18, 0x00, 0x60, 0x0c, 0x00,
   0x30, 0x06, 0x00, 0x70, 0x03, 0x00, 0xf0, 0x01, 0x00, 0xf0, 0x00, 0x00,
   0x00, 0x00, 0x00, 0x00, 0x00, 0x00, 0x00, 0x00, 0x00, 0x00, 0x00, 0x00 };
