#define mail_width 24
#define mail_height 24
static unsigned char mail_bits[] = {
   0x00, 0x00, 0x00, 0x00, 0x00, 0x00, 0x00, 0x00, 0x00, 0x00, 0x00, 0x00,
   0xfc, 0xff, 0x3f, 0xfc, 0xff, 0x3f, 0x3c, 0x00, 0x3c, 0x7c, 0x00, 0x3e,
   0xec, 0x00, 0x37, 0xcc, 0x81, 0x33, 0x8c, 0xc3, 0x31, 0x0c, 0xe7, 0x30,
   0x0c, 0x7e, 0x30, 0x0c, 0x3c, 0x30, 0x0c, 0x18, 0x30, 0x0c, 0x00, 0x30,
   0x0c, 0x00, 0x30, 0x0c, 0x00, 0x30, 0xfc, 0xff, 0x3f, 0xfc, 0xff, 0x3f,
   0x00, 0x00, 0x00, 0x00, 0x00, 0x00, 0x00, 0x00, 0x00, 0x00, 0x00, 0x00 };
