#define media_width 24
#define media_height 24
static unsigned char media_bits[] = {
   0x00, 0x00, 0x00, 0x00, 0x00, 0x00, 0x00, 0x00, 0x00, 0x00, 0x00, 0x00,
   0x00, 0x18, 0x00, 0x00, 0x38, 0x00, 0x00, 0x78, 0x00, 0x00, 0xf8, 0x00,
   0x00, 0xf8, 0x01, 0x00, 0xc8, 0x01, 0x00, 0x88, 0x03, 0x00, 0x08, 0x03,
   0x00, 0x08, 0x02, 0x00, 0x08, 0x02, 0x00, 0x0b, 0x03, 0x80, 0x8f, 0x01,
   0xc0, 0x8f, 0x00, 0xc0, 0x0f, 0x00, 0x80, 0x07, 0x00, 0x00, 0x03, 0x00,
   0x00, 0x00, 0x00, 0x00, 0x00, 0x00, 0x00, 0x00, 0x00, 0x00, 0x00, 0x00 };
