#define mute_width 24
#define mute_height 24
static unsigned char mute_bits[] = {
   0x00, 0x00, 0x00, 0x00, 0x00, 0x00, 0x00, 0x00, 0x00, 0x00, 0x04, 0x00,
   0x00, 0x06, 0x00, 0x00, 0x07, 0x00, 0x80, 0x07, 0x00, 0xc0, 0x07, 0x00,
   0xfe, 0xc7, 0x60, 0xfe, 0xc7, 0x71, 0xfe, 0x87, 0x3b, 0xfe, 0x07, 0x1f,
   0xfe, 0x07, 0x0e, 0xfe, 0x07, 0x1f, 0xfe, 0x87, 0x3b, 0xfe, 0xc7, 0x71,
   0xc0, 0xc7, 0x60, 0x80, 0x07, 0x00, 0x00, 0x07, 0x00, 0x00, 0x06, 0x00,
   0x00, 0x04, 0x00, 0x00, 0x00, 0x00, 0x00, 0x00, 0x00, 0x00, 0x00, 0x00 };
