#define office_width 24
#define office_height 24
static unsigned char office_bits[] = {
   0x00, 0x00, 0x00, 0x00, 0x00, 0x00, 0xf0, 0xff, 0x00, 0xf0, 0xff, 0x01,
   0x30, 0xc0, 0x03, 0x30, 0xc0, 0x07, 0xb0, 0xdf, 0x0f, 0x30, 0xc0, 0x0f,
   0x30, 0x00, 0x0c, 0xb0, 0xff, 0x0d, 0x30, 0x00, 0x0c, 0x30, 0x00, 0x0c,
   0xb0, 0xff, 0x0d, 0x30, 0x00, 0x0c, 0x30, 0x00, 0x0c, 0xb0, 0xff, 0x0d,
   0x30, 0x00, 0x0c, 0x30, 0x00, 0x0c, 0xb0, 0xff, 0x0d, 0x30, 0x00, 0x0c,
   0xf0, 0xff, 0x0f, 0xf0, 0xff, 0x0f, 0x00, 0x00, 0x00, 0x00, 0x00, 0x00 };
