#define random_width 24
#define random_height 24
static unsigned char random_bits[] = {
   0x00, 0x00, 0x00, 0x00, 0x00, 0x00, 0x00, 0x00, 0x00, 0x98, 0x9f, 0x19,
   0x98, 0x9f, 0x19, 0x18, 0x18, 0x18, 0x18, 0x18, 0x18, 0xf8, 0x99, 0x1f,
   0xf8, 0x99, 0x1f, 0x00, 0x18, 0x18, 0x00, 0x18, 0x18, 0xf8, 0xff, 0x19,
   0xf8, 0xff, 0x19, 0x00, 0x80, 0x01, 0x00, 0x80, 0x01, 0xf8, 0x99, 0x1f,
   0xf8, 0x99, 0x1f, 0x18, 0x98, 0x01, 0x18, 0x98, 0x01, 0x98, 0x9f, 0x19,
   0x98, 0x9f, 0x19, 0x00, 0x00, 0x00, 0x00, 0x00, 0x00, 0x00, 0x00, 0x00 };
