#define sound_width 24
#define sound_height 24
static unsigned char sound_bits[] = {
   0x00, 0x00, 0x00, 0x00, 0x00, 0x00, 0x00, 0x00, 0x00, 0x00, 0x04, 0x00,
   0x00, 0x06, 0x40, 0x00, 0x07, 0x40, 0x80, 0x07, 0x48, 0xc0, 0x07, 0x48,
   0xfe, 0x07, 0x49, 0xfe, 0x07, 0x49, 0xfe, 0x27, 0x49, 0xfe, 0x27, 0x49,
   0xfe, 0x27, 0x49, 0xfe, 0x27, 0x49, 0xfe, 0x07, 0x49, 0xfe, 0x07, 0x49,
   0xc0, 0x07, 0x48, 0x80, 0x07, 0x48, 0x00, 0x07, 0x40, 0x00, 0x06, 0x40,
   0x00, 0x04, 0x00, 0x00, 0x00, 0x00, 0x00, 0x00, 0x00, 0x00, 0x00, 0x00 };
