#define www_width 24
#define www_height 24
static unsigned char www_bits[] = {
   0x00, 0x00, 0x00, 0x00, 0x00, 0x00, 0x00, 0xff, 0x00, 0xc0, 0xc3, 0x03,
   0xe0, 0x00, 0x07, 0x30, 0x42, 0x0c, 0x18, 0x84, 0x19, 0xd8, 0xc7, 0x1b,
   0xcc, 0xe7, 0x33, 0xec, 0x83, 0x37, 0xe4, 0xc3, 0x27, 0xc4, 0x83, 0x23,
   0xc4, 0x01, 0x20, 0xc4, 0xe3, 0x24, 0x8c, 0xf3, 0x35, 0xcc, 0xf9, 0x35,
   0xd8, 0xf8, 0x12, 0x18, 0x70, 0x18, 0x30, 0x00, 0x0c, 0xe0, 0x00, 0x06,
   0xc0, 0xc3, 0x03, 0x00, 0xff, 0x00, 0x00, 0x00, 0x00, 0x00, 0x00, 0x00 };
